<svg xmlns="http://www.w3.org/2000/svg" viewBox="0 0 1200 1400">
  <!-- Background -->
  <rect width="1200" height="1400" fill="#ffffff"/>
  
  <!-- Title -->
  <text x="600" y="30" font-family="Arial" font-size="24" text-anchor="middle" font-weight="bold">Appointment Booking Flow Sequence Diagram</text>
  
  <!-- Actors -->
  <rect x="50" y="60" width="120" height="40" fill="#f5f5f5" stroke="#000000" stroke-width="2" rx="5" ry="5"/>
  <text x="110" y="85" font-family="Arial" font-size="16" text-anchor="middle">Customer</text>
  <line x1="110" y1="100" x2="110" y2="1350" stroke="#000000" stroke-width="1" stroke-dasharray="5,5"/>
  
  <rect x="220" y="60" width="120" height="40" fill="#f5f5f5" stroke="#000000" stroke-width="2" rx="5" ry="5"/>
  <text x="280" y="85" font-family="Arial" font-size="16" text-anchor="middle">Browser</text>
  <line x1="280" y1="100" x2="280" y2="1350" stroke="#000000" stroke-width="1" stroke-dasharray="5,5"/>
  
  <rect x="390" y="60" width="120" height="40" fill="#f5f5f5" stroke="#000000" stroke-width="2" rx="5" ry="5"/>
  <text x="450" y="85" font-family="Arial" font-size="16" text-anchor="middle">App.tsx</text>
  <line x1="450" y1="100" x2="450" y2="1350" stroke="#000000" stroke-width="1" stroke-dasharray="5,5"/>
  
  <rect x="560" y="60" width="150" height="40" fill="#f5f5f5" stroke="#000000" stroke-width="2" rx="5" ry="5"/>
  <text x="635" y="85" font-family="Arial" font-size="16" text-anchor="middle">AppointmentFlow</text>
  <line x1="635" y1="100" x2="635" y2="1350" stroke="#000000" stroke-width="1" stroke-dasharray="5,5"/>
  
  <rect x="760" y="60" width="120" height="40" fill="#f5f5f5" stroke="#000000" stroke-width="2" rx="5" ry="5"/>
  <text x="820" y="85" font-family="Arial" font-size="16" text-anchor="middle">ChatInterface</text>
  <line x1="820" y1="100" x2="820" y2="1350" stroke="#000000" stroke-width="1" stroke-dasharray="5,5"/>
  
  <rect x="930" y="60" width="120" height="40" fill="#f5f5f5" stroke="#000000" stroke-width="2" rx="5" ry="5"/>
  <text x="990" y="85" font-family="Arial" font-size="16" text-anchor="middle">Backend</text>
  <line x1="990" y1="100" x2="990" y2="1350" stroke="#000000" stroke-width="1" stroke-dasharray="5,5"/>

  <rect x="1080" y="60" width="120" height="40" fill="#f5f5f5" stroke="#000000" stroke-width="2" rx="5" ry="5"/>
  <text x="1140" y="85" font-family="Arial" font-size="16" text-anchor="middle">Salesforce</text>
  <line x1="1140" y1="100" x2="1140" y2="1350" stroke="#000000" stroke-width="1" stroke-dasharray="5,5"/>

  <rect x="1230" y="60" width="120" height="40" fill="#f5f5f5" stroke="#000000" stroke-width="2" rx="5" ry="5"/>
  <text x="1290" y="85" font-family="Arial" font-size="16" text-anchor="middle">OpenAI</text>
  <line x1="1290" y1="100" x2="1290" y2="1350" stroke="#000000" stroke-width="1" stroke-dasharray="5,5"/>
  
  <!-- Section: Customer Login -->
  <rect x="50" y="140" width="1100" height="30" fill="#e6e6e6" stroke="#000000" stroke-width="1"/>
  <text x="600" y="160" font-family="Arial" font-size="16" text-anchor="middle" font-weight="bold">Customer Login</text>
  
  <!-- Customer Login Messages -->
  <line x1="110" y1="200" x2="280" y2="200" stroke="#000000" stroke-width="1.5" marker-end="url(#arrowhead)"/>
  <text x="195" y="190" font-family="Arial" font-size="14" text-anchor="middle">Opens application</text>
  
  <line x1="280" y1="230" x2="450" y2="230" stroke="#000000" stroke-width="1.5" marker-end="url(#arrowhead)"/>
  <text x="365" y="220" font-family="Arial" font-size="14" text-anchor="middle">Load App component</text>
  
  <line x1="450" y1="260" x2="990" y2="260" stroke="#000000" stroke-width="1.5" marker-end="url(#arrowhead)"/>
  <text x="720" y="250" font-family="Arial" font-size="14" text-anchor="middle">GET /api/auth/check-session</text>
  
  <line x1="990" y1="290" x2="450" y2="290" stroke="#000000" stroke-width="1.5" marker-end="url(#arrowhead)"/>
  <text x="720" y="280" font-family="Arial" font-size="14" text-anchor="middle">Returns session data (username: "Jack Rogers")</text>
  
  <line x1="450" y1="320" x2="635" y2="320" stroke="#000000" stroke-width="1.5" marker-end="url(#arrowhead)"/>
  <text x="540" y="310" font-family="Arial" font-size="14" text-anchor="middle">Pass isLoggedIn=true, userName="Jack Rogers", userType="customer"</text>
  
  <line x1="635" y1="350" x2="820" y2="350" stroke="#000000" stroke-width="1.5" marker-end="url(#arrowhead)"/>
  <text x="725" y="340" font-family="Arial" font-size="14" text-anchor="middle">Render with props (isLoggedIn=true, userType="customer", showChat=true)</text>
  
  <!-- Section: Guided Flow -->
  <rect x="50" y="390" width="1100" height="30" fill="#e6e6e6" stroke="#000000" stroke-width="1"/>
  <text x="600" y="410" font-family="Arial" font-size="16" text-anchor="middle" font-weight="bold">Guided Flow</text>
  
  <!-- Guided Flow Messages -->
  <line x1="110" y1="450" x2="280" y2="450" stroke="#000000" stroke-width="1.5" marker-end="url(#arrowhead)"/>
  <text x="195" y="440" font-family="Arial" font-size="14" text-anchor="middle">Toggle Guided Mode ON</text>
  
  <line x1="280" y1="480" x2="820" y2="480" stroke="#000000" stroke-width="1.5" marker-end="url(#arrowhead)"/>
  <text x="550" y="470" font-family="Arial" font-size="14" text-anchor="middle">Set isGuidedMode=true</text>
  
  <line x1="820" y1="510" x2="110" y2="510" stroke="#000000" stroke-width="1.5" marker-end="url(#arrowhead)"/>
  <text x="465" y="500" font-family="Arial" font-size="14" text-anchor="middle">Display reason options (e.g., "Open a new account")</text>
  
  <!-- Section: Step 1 -->
  <rect x="50" y="550" width="1100" height="30" fill="#e6e6e6" stroke="#000000" stroke-width="1"/>
  <text x="600" y="570" font-family="Arial" font-size="16" text-anchor="middle" font-weight="bold">Step 1: Reason Selection</text>
  
  <!-- Step 1 Messages -->
  <line x1="110" y1="610" x2="280" y2="610" stroke="#000000" stroke-width="1.5" marker-end="url(#arrowhead)"/>
  <text x="195" y="600" font-family="Arial" font-size="14" text-anchor="middle">Selects "Open a new account"</text>
  
  <line x1="280" y1="640" x2="820" y2="640" stroke="#000000" stroke-width="1.5" marker-end="url(#arrowhead)"/>
  <text x="550" y="630" font-family="Arial" font-size="14" text-anchor="middle">handleReasonSelection("Open a new account")</text>
  
  <line x1="820" y1="670" x2="990" y2="670" stroke="#000000" stroke-width="1.5" marker-end="url(#arrowhead)"/>
  <text x="905" y="660" font-family="Arial" font-size="14" text-anchor="middle">POST /api/guidedFlow (query="Open a new account", guidedStep="reasonSelection")</text>
  
  <line x1="990" y1="700" x2="1290" y2="700" stroke="#000000" stroke-width="1.5" marker-end="url(#arrowhead)"/>
  <text x="1140" y="690" font-family="Arial" font-size="14" text-anchor="middle">Request time slot suggestions</text>
  
  <line x1="1290" y1="730" x2="990" y2="730" stroke="#000000" stroke-width="1.5" marker-end="url(#arrowhead)"/>
  <text x="1140" y="720" font-family="Arial" font-size="14" text-anchor="middle">Returns JSON with timeSlots (e.g., ["2025-03-18T14:00:00.000Z", ...])</text>
  
  <line x1="990" y1="760" x2="820" y2="760" stroke="#000000" stroke-width="1.5" marker-end="url(#arrowhead)"/>
  <text x="905" y="750" font-family="Arial" font-size="14" text-anchor="middle">Response with timeSlots</text>
  
  <line x1="820" y1="790" x2="110" y2="790" stroke="#000000" stroke-width="1.5" marker-end="url(#arrowhead)"/>
  <text x="465" y="780" font-family="Arial" font-size="14" text-anchor="middle">Display time slot options</text>
  
  <!-- Section: Step 2 -->
  <rect x="50" y="830" width="1100" height="30" fill="#e6e6e6" stroke="#000000" stroke-width="1"/>
  <text x="600" y="850" font-family="Arial" font-size="16" text-anchor="middle" font-weight="bold">Step 2: Time Selection</text>
  
  <!-- Step 2 Messages -->
  <line x1="110" y1="890" x2="280" y2="890" stroke="#000000" stroke-width="1.5" marker-end="url(#arrowhead)"/>
  <text x="195" y="880" font-family="Arial" font-size="14" text-anchor="middle">Selects "March 18th, 2025, 2:00 PM"</text>
  
  <line x1="280" y1="920" x2="820" y2="920" stroke="#000000" stroke-width="1.5" marker-end="url(#arrowhead)"/>
  <text x="550" y="910" font-family="Arial" font-size="14" text-anchor="middle">handleTimeSelection({display: "March 18th...", raw: "2025-03-18T14:00:00.000Z"})</text>
  
  <line x1="820" y1="950" x2="990" y2="950" stroke="#000000" stroke-width="1.5" marker-end="url(#arrowhead)"/>
  <text x="905" y="940" font-family="Arial" font-size="14" text-anchor="middle">POST /api/guidedFlow (query="2025-03-18T14:00:00.000Z", guidedStep="timeSelection")</text>
  
  <line x1="990" y1="980" x2="1290" y2="980" stroke="#000000" stroke-width="1.5" marker-end="url(#arrowhead)"/>
  <text x="1140" y="970" font-family="Arial" font-size="14" text-anchor="middle">Request location options</text>
  
  <line x1="1290" y1="1010" x2="990" y2="1010" stroke="#000000" stroke-width="1.5" marker-end="url(#arrowhead)"/>
  <text x="1140" y="1000" font-family="Arial" font-size="14" text-anchor="middle">Returns JSON with locationOptions (e.g., ["Brooklyn", "Manhattan", "New York"])</text>
  
  <line x1="990" y1="1040" x2="820" y2="1040" stroke="#000000" stroke-width="1.5" marker-end="url(#arrowhead)"/>
  <text x="905" y="1030" font-family="Arial" font-size="14" text-anchor="middle">Response with locationOptions</text>
  
  <line x1="820" y1="1070" x2="110" y2="1070" stroke="#000000" stroke-width="1.5" marker-end="url(#arrowhead)"/>
  <text x="465" y="1060" font-family="Arial" font-size="14" text-anchor="middle">Display location options</text>
  
  <!-- Section: Step 3 -->
  <rect x="50" y="1110" width="1100" height="30" fill="#e6e6e6" stroke="#000000" stroke-width="1"/>
  <text x="600" y="1130" font-family="Arial" font-size="16" text-anchor="middle" font-weight="bold">Step 3: Location Selection</text>
  
  <!-- Step 3 Messages -->
  <line x1="110" y1="1170" x2="280" y2="1170" stroke="#000000" stroke-width="1.5" marker-end="url(#arrowhead)"/>
  <text x="195" y="1160" font-family="Arial" font-size="14" text-anchor="middle">Selects "Brooklyn"</text>
  
  <line x1="280" y1="1200" x2="820" y2="1200" stroke="#000000" stroke-width="1.5" marker-end="url(#arrowhead)"/>
  <text x="550" y="1190" font-family="Arial" font-size="14" text-anchor="middle">handleLocationSelection("Brooklyn")</text>
  
  <line x1="820" y1="1230" x2="990" y2="1230" stroke="#000000" stroke-width="1.5" marker-end="url(#arrowhead)"/>
  <text x="905" y="1220" font-family="Arial" font-size="14" text-anchor="middle">POST /api/guidedFlow (query="Brooklyn", guidedStep="locationSelection")</text>
  
  <line x1="990" y1="1260" x2="1290" y2="1260" stroke="#000000" stroke-width="1.5" marker-end="url(#arrowhead)"/>
  <text x="1140" y="1250" font-family="Arial" font-size="14" text-anchor="middle">Request confirmation prompt</text>
  
  <line x1="1290" y1="1290" x2="990" y2="1290" stroke="#000000" stroke-width="1.5" marker-end="url(#arrowhead)"/>
  <text x="1140" y="1280" font-family="Arial" font-size="14" text-anchor="middle">Returns JSON with confirmation prompt</text>
  
  <line x1="990" y1="1320" x2="820" y2="1320" stroke="#000000" stroke-width="1.5" marker-end="url(#arrowhead)"/>
  <text x="905" y="1310" font-family="Arial" font-size="14" text-anchor="middle">Response with confirmation request</text>
  
  <line x1="820" y1="1350" x2="110" y2="1350" stroke="#000000" stroke-width="1.5" marker-end="url(#arrowhead)"/>
  <text x="465" y="1340" font-family="Arial" font-size="14" text-anchor="middle">Display confirmation details</text>
  
  <!-- Arrow Definitions -->
  <defs>
    <marker id="arrowhead" markerWidth="10" markerHeight="7" refX="9" refY="3.5" orient="auto">
      <polygon points="0 0, 10 3.5, 0 7" fill="#000000"/>
    </marker>
  </defs>
</svg>
